<svg height="790" node-id="1" sillyvg="true" template-height="790" template-width="1030" version="1.1" viewBox="0 0 1030 790" width="1030" xmlns="http://www.w3.org/2000/svg" xmlns:xlink="http://www.w3.org/1999/xlink"><defs node-id="47"></defs><path d="M 548.36 97.86 L 19.55 784.18 L 787.04 784.18 L 905.45 212.29" fill="#f3f5fd" fill-rule="nonzero" node-id="49" stroke="none" target-height="686.32" target-width="885.903" target-x="19.545" target-y="97.863"/><path d="M 1030.10 373.04 L 756.28 373.04 C 757.84 362.64 763.52 353.00 772.22 348.29 C 782.97 342.47 796.04 344.19 808.17 345.69 C 820.30 347.19 833.69 348.03 843.65 340.95 C 848.66 337.38 852.21 332.18 856.26 327.56 C 867.86 314.33 886.14 305.27 903.10 309.95 C 911.64 312.30 918.93 317.79 927.02 321.38 C 935.52 325.14 944.82 326.75 954.09 326.08 C 963.65 325.38 973.16 322.25 982.65 323.65 C 994.67 325.44 1004.51 334.26 1011.65 344.11 C 1018.40 353.43 1023.22 362.48 1030.10 373.04 Z" fill="#dee8f5" fill-rule="nonzero" node-id="51" stroke="none" target-height="67.765015" target-width="273.815" target-x="756.285" target-y="305.275"/><path d="M 360.79 374.75 L 9.20 374.75 C 5.95 368.45 5.51 361.06 8.00 354.42 C 10.97 346.96 17.36 341.38 25.16 339.45 C 36.64 336.73 49.61 342.32 60.08 336.88 C 68.20 332.65 71.95 323.11 73.68 314.13 C 75.41 305.15 75.89 295.67 80.25 287.62 C 87.58 274.12 104.98 268.09 120.01 271.31 C 135.03 274.53 147.51 285.47 155.72 298.45 C 159.10 303.79 162.17 309.82 167.74 312.80 C 174.17 316.24 182.17 314.60 188.78 311.52 C 195.38 308.45 201.38 304.02 208.29 301.74 C 222.25 297.12 238.93 302.76 247.23 314.90 C 253.16 323.57 255.65 335.52 264.97 340.38 C 268.81 342.38 273.26 342.80 277.58 342.91 C 294.84 343.32 312.57 339.31 329.08 344.33 C 343.78 349.02 355.49 360.26 360.79 374.75 Z" fill="#dee8f5" fill-rule="nonzero" node-id="53" stroke="none" target-height="106.65903" target-width="355.27335" target-x="5.512667" target-y="268.093"/><g node-id="146"><g node-id="149"><path d="M 721.52 119.46 L 727.94 121.64 L 734.02 124.09 L 739.77 126.80 L 745.22 129.77 L 750.54 133.08 L 755.46 136.56 L 760.00 140.20 L 764.17 144.01 L 768.14 148.13 L 771.64 152.32 L 774.71 156.58 L 777.38 160.91 L 779.71 165.49 L 781.54 170.05 L 782.91 174.61 L 783.83 179.18 L 784.28 183.83 L 784.21 188.42 L 783.63 192.98 L 782.52 197.53 L 780.88 201.91 L 778.80 206.01 L 776.28 209.84 L 773.30 213.44 L 769.97 216.71 L 766.28 219.71 L 762.20 222.45 L 757.70 224.93 L 753.06 227.02 L 748.13 228.81 L 742.88 230.31 L 737.28 231.49 L 731.69 232.30 L 725.89 232.77 L 719.86 232.88 L 713.60 232.63 L 707.42 232.03 L 701.14 231.04 L 694.74 229.65 L 688.20 227.85 L 681.78 225.67 L 675.71 223.22 L 669.95 220.51 L 664.50 217.54 L 659.18 214.23 L 654.26 210.75 L 649.73 207.10 L 645.55 203.29 L 641.59 199.17 L 638.08 194.99 L 635.01 190.73 L 632.35 186.40 L 630.02 181.81 L 628.18 177.25 L 626.81 172.70 L 625.89 168.13 L 625.45 163.48 L 625.51 158.89 L 626.10 154.33 L 627.20 149.78 L 628.84 145.40 L 630.92 141.30 L 633.44 137.47 L 636.43 133.87 L 639.75 130.60 L 643.44 127.60 L 647.52 124.86 L 652.02 122.38 L 656.66 120.29 L 661.60 118.49 L 666.85 117.00 L 672.44 115.82 L 678.04 115.01 L 683.84 114.54 L 689.86 114.43 L 696.12 114.68 L 702.30 115.28 L 708.58 116.27 L 714.99 117.66 L 721.52 119.46 Z" fill="#d7e8f4" fill-rule="nonzero" group-id="1,4" node-id="59" stroke="none" target-height="118.45343" target-width="158.83112" target-x="625.44574" target-y="114.42731"/></g><path d="M 931.83 218.43 C 928.37 229.67 904.96 233.72 869.08 231.31 C 825.83 228.41 764.47 216.10 698.08 195.70 C 631.68 175.29 574.03 151.00 536.61 129.11 C 505.56 110.95 488.47 94.45 491.93 83.21 C 495.99 69.99 527.69 66.72 574.82 72.22 C 616.02 77.03 669.02 88.54 725.67 105.95 C 782.31 123.37 832.63 143.62 869.42 162.78 C 911.51 184.70 935.89 205.21 931.83 218.43 Z" fill="#c1d8ed" fill-rule="nonzero" group-id="1" node-id="62" stroke="none" target-height="166.998" target-width="447.418" target-x="488.473" target-y="66.722"/><path d="M 867.49 196.23 C 827.18 193.52 769.99 182.06 708.12 163.04 C 646.25 144.02 592.50 121.38 557.63 100.99 C 565.93 81.16 578.03 63.15 593.25 47.97 C 634.68 6.63 696.64 -11.09 756.03 7.17 C 815.43 25.43 856.73 74.89 867.80 132.37 C 871.86 153.47 871.76 175.17 867.49 196.23 Z" fill="#d7e8f4" fill-rule="nonzero" group-id="1" node-id="64" stroke="none" target-height="207.321" target-width="314.2307" target-x="557.632" target-y="-11.093"/></g><g node-id="147"><path d="M 555.28 249.60 L 560.84 242.34 C 560.84 242.34 555.47 231.81 543.79 231.82 C 539.92 231.82 539.85 236.20 541.00 236.90 C 544.79 239.19 548.73 241.01 550.72 244.25 C 549.02 243.93 546.66 243.62 546.50 244.38 C 546.08 246.36 555.28 249.60 555.28 249.60 Z" fill="#eda59f" fill-rule="nonzero" group-id="2" node-id="69" stroke="none" target-height="17.78801" target-width="20.987" target-x="539.854" target-y="231.812"/><path d="M 575.63 316.36 L 561.19 307.71 L 579.67 276.84 L 549.88 249.62 L 561.23 237.20 L 596.09 269.06 C 599.04 271.75 599.69 276.15 597.63 279.58 Z" fill="#2f3235" fill-rule="nonzero" group-id="2" node-id="71" stroke="none" target-height="79.15901" target-width="49.80591" target-x="549.883" target-y="237.196"/><path d="M 523.88 522.20 L 521.85 506.12 C 527.93 505.35 535.23 504.38 536.40 504.14 L 536.22 504.18 L 540.14 519.91 C 539.67 520.02 538.24 520.38 523.88 522.20 Z" fill="#eda59f" fill-rule="nonzero" group-id="2" node-id="73" stroke="none" target-height="18.059021" target-width="18.29602" target-x="521.847" target-y="504.141"/><path d="M 521.95 543.28 C 522.13 544.15 522.66 544.89 523.41 545.35 C 524.17 545.80 525.08 545.92 525.92 545.68 L 525.92 545.68 C 527.11 545.34 527.99 544.34 528.18 543.12 L 530.58 523.38 C 530.67 522.60 530.42 521.83 529.89 521.25 C 527.61 519.07 526.09 516.22 525.54 513.11 C 525.22 510.67 525.59 508.19 526.61 505.94 C 526.83 505.54 526.79 505.04 526.51 504.67 C 526.23 504.30 525.76 504.13 525.31 504.22 L 516.28 506.07 C 515.74 506.18 515.27 506.50 514.96 506.96 C 514.66 507.42 514.56 507.98 514.67 508.52 Z" fill="#c1d8ed" fill-rule="nonzero" group-id="2" node-id="75" stroke="none" target-height="41.795532" target-width="16.113953" target-x="514.5572" target-y="504.1258"/><path d="M 679.50 569.50 C 679.28 563.37 678.96 556.01 678.83 554.82 L 678.86 555.01 L 694.87 552.51 C 694.94 552.99 695.17 554.46 695.69 568.91 Z" fill="#eda59f" fill-rule="nonzero" group-id="2" node-id="77" stroke="none" target-height="16.986023" target-width="16.862976" target-x="678.831" target-y="552.514"/><path d="M 716.53 572.73 C 717.40 572.63 718.19 572.17 718.71 571.46 C 719.23 570.75 719.43 569.85 719.27 568.99 L 719.27 568.99 C 719.03 567.77 718.12 566.81 716.92 566.51 L 697.47 562.35 C 696.71 562.19 695.92 562.37 695.30 562.84 C 692.92 564.92 689.94 566.18 686.80 566.44 C 684.34 566.55 681.90 565.96 679.75 564.74 C 679.37 564.49 678.87 564.48 678.48 564.73 C 678.08 564.97 677.87 565.42 677.92 565.88 L 678.96 575.04 C 679.02 575.59 679.29 576.09 679.73 576.43 C 680.16 576.77 680.70 576.93 681.25 576.86 Z" fill="#c1d8ed" fill-rule="nonzero" group-id="2" node-id="79" stroke="none" target-height="14.737244" target-width="41.567444" target-x="677.86694" target-y="562.1896"/><path d="M 682.23 460.80 C 673.97 445.28 624.94 380.08 619.68 373.04 L 568.11 400.50 C 568.11 400.50 582.96 476.77 583.15 479.00 L 530.80 499.50 L 537.62 527.23 L 605.28 507.99 C 612.97 506.40 618.42 499.54 618.23 491.69 C 618.23 491.69 610.29 423.67 610.18 422.40 L 652.41 468.92 L 673.62 561.21 L 701.88 557.16 C 701.88 557.16 685.57 467.08 682.23 460.80 Z" fill="#55affc" fill-rule="nonzero" group-id="2" node-id="81" stroke="none" target-height="188.17398" target-width="171.08398" target-x="530.8" target-y="373.038"/><path d="M 460.62 284.77 L 453.81 290.87 C 453.81 290.87 442.76 284.61 441.88 272.96 C 441.59 269.10 445.94 268.70 446.72 269.79 C 449.30 273.39 451.56 278.89 454.94 280.63 C 454.49 278.96 454.00 276.63 454.74 276.42 C 456.69 275.84 460.62 284.77 460.62 284.77 Z" fill="#eda59f" fill-rule="nonzero" group-id="2" node-id="83" stroke="none" target-height="22.174011" target-width="19.036987" target-x="441.586" target-y="268.697"/><path d="M 564.44 406.35 C 559.19 399.88 560.98 389.71 551.61 376.49 C 542.24 363.27 518.10 354.98 520.99 338.04 C 521.83 333.13 525.49 327.74 531.54 323.45 C 534.49 326.66 555.96 311.49 553.67 307.91 C 554.50 307.34 555.14 306.90 555.55 306.64 C 577.08 292.74 584.74 323.02 596.91 340.63 C 611.14 361.25 619.39 361.19 621.10 369.37 C 622.75 377.30 572.69 416.53 564.44 406.35 Z" fill="#2f3235" fill-rule="nonzero" group-id="2" node-id="85" stroke="none" target-height="123.789" target-width="104.650024" target-x="518.1" target-y="292.743"/><path d="M 552.14 322.41 C 544.75 328.41 534.49 326.66 531.54 323.45 C 531.55 323.44 531.55 323.43 531.56 323.43 C 539.19 318.04 549.17 310.99 553.67 307.91 C 555.96 311.49 557.68 317.91 552.14 322.41 Z" fill="#eda59f" fill-rule="nonzero" group-id="2" node-id="87" stroke="none" target-height="20.5" target-width="26.140015" target-x="531.54" target-y="307.913"/><path d="M 528.37 347.16 L 482.21 334.76 C 480.31 334.24 478.64 333.08 477.51 331.46 L 447.91 289.24 L 461.68 279.58 L 489.53 319.30 L 532.73 330.91 Z" fill="#2f3235" fill-rule="nonzero" group-id="2" node-id="89" stroke="none" target-height="67.57898" target-width="84.82297" target-x="447.907" target-y="279.579"/><g node-id="150"><path d="M 534.35 323.86 C 534.35 323.86 537.97 318.18 528.83 304.75 L 538.39 296.72 C 538.39 296.72 544.35 310.03 552.03 310.97 Z" fill="#eda59f" fill-rule="nonzero" group-id="2,5" node-id="93" stroke="none" target-height="27.138" target-width="23.197998" target-x="528.831" target-y="296.717"/><g node-id="151"><path d="M 548.34 309.57 L 535.62 307.81 L 542.55 303.78 C 544.10 306.06 546.07 308.02 548.34 309.57 Z" fill="#000000" fill-opacity="0.15" fill-rule="nonzero" group-id="2,5,6" node-id="97" stroke="none" target-height="5.7850037" target-width="12.72699" target-x="535.616" target-y="303.784"/></g><path d="M 519.67 302.73 C 522.83 306.58 527.46 309.30 532.01 308.55 C 537.04 307.85 541.83 305.93 545.95 302.96 C 557.11 295.37 539.72 270.08 531.24 268.06 C 522.75 266.04 508.31 278.55 511.22 288.32 C 512.73 293.37 516.66 299.06 519.67 302.73 Z" fill="#eda59f" fill-rule="nonzero" group-id="2,5" node-id="100" stroke="none" target-height="43.263" target-width="48.799988" target-x="508.307" target-y="266.041"/><path d="M 543.75 273.83 C 543.75 273.83 530.75 256.22 512.61 272.63 C 509.76 275.42 507.86 279.05 507.20 282.98 C 503.56 280.50 498.78 280.48 495.12 282.93 C 491.46 285.39 489.67 289.82 490.59 294.13 C 491.50 298.44 494.95 301.75 499.29 302.50 C 503.63 303.25 507.99 301.28 510.30 297.53 C 510.47 297.79 510.65 298.05 510.83 298.31 C 518.74 309.30 531.80 309.64 531.80 309.64 C 531.80 309.64 533.29 306.18 521.65 287.79 C 526.38 285.62 537.01 280.33 543.75 273.83 Z" fill="#0f1011" fill-rule="nonzero" group-id="2,5" node-id="102" stroke="none" target-height="53.422028" target-width="54.086243" target-x="489.6678" target-y="256.218"/><path d="M 535.11 288.98 C 535.11 289.60 534.61 290.10 533.99 290.10 C 533.38 290.10 532.88 289.60 532.88 288.98 C 532.88 288.37 533.38 287.87 533.99 287.87 C 534.61 287.87 535.11 288.37 535.11 288.98 Z" fill="#0f1011" fill-rule="nonzero" group-id="2,5,7" node-id="106" stroke="none" target-height="2.2279968" target-width="2.2279663" target-x="532.88" target-y="287.867"/><path d="M 542.40 284.02 C 542.40 284.64 541.90 285.13 541.28 285.13 C 540.67 285.13 540.17 284.64 540.17 284.02 C 540.17 283.41 540.67 282.91 541.28 282.91 C 541.90 282.91 542.40 283.41 542.40 284.02 Z" fill="#0f1011" fill-rule="nonzero" group-id="2,5,7" node-id="108" stroke="none" target-height="2.2279968" target-width="2.2279663" target-x="540.171" target-y="282.907"/><path d="M 538.95 282.50 C 538.71 282.50 538.50 282.34 538.44 282.11 C 538.38 281.87 538.49 281.63 538.70 281.52 L 541.28 280.09 C 541.53 279.98 541.83 280.08 541.96 280.32 C 542.09 280.56 542.02 280.86 541.78 281.01 L 539.20 282.43 C 539.12 282.47 539.04 282.50 538.95 282.50 Z" fill="#0f1011" fill-rule="nonzero" group-id="2,5,7" node-id="110" stroke="none" target-height="2.52005" target-width="3.7091675" target-x="538.38367" target-y="279.98004"/><path d="M 530.65 288.48 C 530.43 288.48 530.24 288.35 530.16 288.15 C 530.08 287.95 530.13 287.72 530.29 287.57 L 532.48 285.53 C 532.69 285.34 533.01 285.36 533.20 285.57 C 533.39 285.77 533.39 286.09 533.19 286.29 L 531.01 288.34 C 530.91 288.43 530.78 288.48 530.65 288.48 Z" fill="#0f1011" fill-rule="nonzero" group-id="2,5,7" node-id="112" stroke="none" target-height="3.1322937" target-width="3.3110962" target-x="530.0834" target-y="285.3447"/><path d="M 538.77 296.36 C 540.92 295.41 542.89 294.07 544.57 292.41 C 544.57 292.41 545.88 294.78 543.18 296.61 C 540.48 298.44 538.77 296.36 538.77 296.36 Z" fill="#ffffff" fill-rule="nonzero" group-id="2,5,7" node-id="114" stroke="none" target-height="6.032013" target-width="7.11499" target-x="538.768" target-y="292.413"/><path d="M 530.29 294.21 C 531.26 295.60 531.40 297.41 530.66 298.93 C 529.93 300.46 528.43 301.48 526.74 301.60 C 525.05 301.72 523.43 300.93 522.49 299.52 C 521.76 298.49 521.48 297.21 521.72 295.98 C 521.95 294.74 522.68 293.65 523.73 292.96 C 526.61 291.21 528.83 292.05 530.29 294.21 Z" fill="#eda59f" fill-rule="nonzero" group-id="2,5" node-id="117" stroke="none" target-height="10.514008" target-width="9.912903" target-x="521.4827" target-y="291.206"/><path d="M 541.34 291.92 C 541.18 292.01 540.97 291.97 540.85 291.82 C 540.73 291.67 540.74 291.46 540.87 291.32 L 542.50 289.60 L 539.38 287.31 C 539.21 287.18 539.18 286.95 539.30 286.78 C 539.43 286.61 539.66 286.57 539.84 286.69 L 543.31 289.24 C 543.39 289.30 543.45 289.40 543.46 289.51 C 543.47 289.62 543.43 289.73 543.36 289.81 L 541.43 291.85 C 541.40 291.88 541.38 291.90 541.34 291.92 Z" fill="#000000" fill-opacity="0.15" fill-rule="nonzero" group-id="2,5,8" node-id="121" stroke="none" target-height="5.4449463" target-width="4.2910156" target-x="539.1802" target-y="286.5695"/></g></g><g node-id="148"><path d="M 111.20 590.78 C 110.89 591.41 110.56 592.04 110.25 592.67 C 109.38 594.37 108.48 596.07 107.55 597.76 C 107.25 598.31 106.96 598.86 106.65 599.40 C 105.44 601.58 104.18 603.74 102.87 605.89 C 102.73 606.14 102.57 606.38 102.42 606.62 C 101.05 608.85 99.64 611.07 98.18 613.27 L 49.45 687.00 L 91.98 687.00 L 140.71 613.27 C 142.17 611.07 143.58 608.85 144.95 606.62 C 145.10 606.37 145.25 606.13 145.40 605.89 C 145.50 605.73 145.60 605.57 145.69 605.42 C 146.90 603.42 148.06 601.42 149.18 599.40 C 149.49 598.86 149.78 598.31 150.08 597.76 C 151.01 596.07 151.91 594.37 152.78 592.66 C 153.10 592.04 153.42 591.41 153.73 590.78 C 154.83 588.58 155.89 586.37 156.89 584.14 L 114.36 584.14 C 113.36 586.37 112.30 588.58 111.20 590.78 Z" fill="#9ebcea" fill-rule="nonzero" group-id="3" node-id="128" stroke="none" target-height="102.856995" target-width="107.44299" target-x="49.451" target-y="584.143"/><path d="M 210.90 519.70 L 168.37 519.70 L 168.37 687.00 L 200.37 687.00 L 200.37 730.71 L 168.37 730.71 L 168.37 785.87 L 210.90 785.87 L 210.90 730.71 L 242.89 730.71 L 242.89 687.00 L 210.90 687.00 L 210.90 519.70 Z" fill="#9ebcea" fill-rule="nonzero" group-id="3" node-id="130" stroke="none" target-height="266.162" target-width="74.51701" target-x="168.374" target-y="519.703"/><path d="M 324.64 744.04 C 324.99 744.07 325.33 744.09 325.68 744.10 C 325.91 744.12 326.14 744.14 326.38 744.15 C 326.76 744.16 327.14 744.17 327.53 744.17 L 370.06 744.17 C 369.43 744.17 368.82 744.13 368.20 744.10 C 367.86 744.09 367.51 744.07 367.17 744.04 C 366.74 744.00 366.31 743.95 365.88 743.90 C 365.55 743.86 365.22 743.82 364.90 743.77 C 364.43 743.70 363.97 743.61 363.51 743.52 C 363.27 743.47 363.03 743.43 362.79 743.38 C 362.20 743.24 361.61 743.08 361.04 742.91 C 360.94 742.88 360.84 742.86 360.74 742.83 C 360.06 742.62 359.40 742.38 358.74 742.12 C 358.55 742.04 358.37 741.96 358.19 741.88 C 357.74 741.68 357.29 741.49 356.86 741.27 C 356.13 740.91 355.42 740.52 354.74 740.09 C 354.67 740.05 354.61 740.01 354.55 739.97 C 353.93 739.57 353.32 739.15 352.73 738.70 C 352.41 738.46 352.10 738.20 351.79 737.94 C 351.55 737.74 351.31 737.55 351.07 737.34 C 350.75 737.05 350.43 736.73 350.11 736.42 C 349.90 736.21 349.68 736.02 349.48 735.80 C 349.13 735.43 348.80 735.05 348.46 734.66 C 348.30 734.47 348.13 734.29 347.96 734.10 C 347.48 733.51 347.00 732.89 346.54 732.24 L 346.54 732.24 C 346.08 731.60 345.63 730.92 345.20 730.22 C 345.06 729.99 344.92 729.74 344.78 729.50 C 344.50 729.02 344.22 728.55 343.95 728.05 C 343.79 727.75 343.64 727.43 343.48 727.13 C 343.25 726.66 343.01 726.20 342.78 725.72 C 342.62 725.37 342.47 725.01 342.32 724.66 C 342.07 724.10 341.82 723.55 341.59 722.96 C 341.28 722.17 340.97 721.35 340.68 720.51 C 340.61 720.31 340.54 720.12 340.48 719.92 C 340.19 719.07 339.91 718.21 339.64 717.30 C 339.61 717.20 339.57 717.08 339.54 716.97 C 339.29 716.14 339.05 715.29 338.82 714.41 C 338.76 714.19 338.71 713.98 338.65 713.77 C 338.40 712.80 338.16 711.81 337.93 710.79 C 337.89 710.61 337.85 710.41 337.81 710.22 C 337.60 709.31 337.41 708.37 337.22 707.40 C 337.18 707.20 337.13 706.99 337.09 706.78 C 336.96 706.09 336.83 705.36 336.70 704.64 C 336.61 704.06 336.50 703.49 336.40 702.90 C 336.28 702.18 336.17 701.42 336.05 700.68 C 335.96 700.08 335.87 699.49 335.78 698.88 C 335.67 698.09 335.57 697.27 335.46 696.46 C 335.38 695.85 335.30 695.26 335.23 694.64 C 335.13 693.78 335.03 692.89 334.94 692.01 C 334.87 691.40 334.80 690.81 334.74 690.19 C 334.64 689.21 334.55 688.20 334.46 687.19 C 334.42 686.63 334.37 686.09 334.31 685.53 C 334.21 684.34 334.13 683.12 334.05 681.90 C 334.02 681.48 333.98 681.07 333.96 680.64 C 333.85 678.98 333.75 677.29 333.66 675.55 C 333.64 675.21 333.63 674.85 333.61 674.50 C 333.54 673.10 333.48 671.69 333.43 670.24 C 333.42 670.08 333.42 669.91 333.41 669.75 C 333.36 668.26 333.31 666.75 333.28 665.21 C 333.26 664.68 333.25 664.14 333.24 663.61 C 333.21 662.35 333.19 661.08 333.18 659.80 C 333.17 659.26 333.16 658.73 333.16 658.19 C 333.14 656.41 333.13 654.61 333.13 652.77 C 333.13 650.86 333.14 648.99 333.16 647.13 C 333.16 646.53 333.18 645.95 333.18 645.35 C 333.20 644.11 333.22 642.88 333.25 641.67 C 333.26 640.99 333.28 640.31 333.30 639.64 C 333.33 638.54 333.36 637.44 333.40 636.37 C 333.42 635.68 333.45 635.00 333.48 634.33 C 333.52 633.28 333.56 632.24 333.61 631.22 C 333.64 630.57 333.67 629.91 333.71 629.27 C 333.76 628.22 333.82 627.18 333.89 626.16 C 333.92 625.58 333.96 625.00 334.00 624.44 C 334.08 623.21 334.17 622.00 334.27 620.80 C 334.29 620.48 334.31 620.14 334.34 619.81 C 334.47 618.30 334.60 616.81 334.75 615.36 C 334.77 615.16 334.79 614.96 334.81 614.76 C 334.94 613.58 335.07 612.42 335.20 611.27 C 335.24 610.95 335.28 610.62 335.32 610.29 C 335.48 609.00 335.64 607.74 335.82 606.51 C 335.84 606.37 335.86 606.23 335.88 606.09 C 336.05 604.98 336.21 603.90 336.39 602.84 C 336.44 602.54 336.49 602.24 336.54 601.94 C 336.74 600.78 336.94 599.64 337.16 598.53 C 337.18 598.45 337.19 598.36 337.21 598.28 C 337.41 597.25 337.63 596.25 337.85 595.27 C 337.91 595.00 337.97 594.73 338.03 594.46 C 338.20 593.74 338.37 593.04 338.55 592.35 C 338.65 591.93 338.75 591.50 338.86 591.09 C 339.05 590.39 339.24 589.72 339.44 589.05 C 339.54 588.72 339.63 588.37 339.73 588.04 C 340.00 587.13 340.29 586.24 340.58 585.39 C 340.61 585.32 340.63 585.25 340.65 585.19 C 340.98 584.23 341.33 583.30 341.68 582.42 C 342.00 581.62 342.34 580.85 342.68 580.10 C 342.78 579.88 342.88 579.67 342.98 579.46 C 343.25 578.89 343.52 578.33 343.81 577.78 C 343.90 577.60 343.99 577.42 344.09 577.24 C 344.46 576.55 344.84 575.89 345.23 575.24 C 345.33 575.08 345.43 574.93 345.53 574.77 C 345.85 574.27 346.17 573.78 346.50 573.30 C 346.65 573.09 346.80 572.88 346.96 572.67 C 347.25 572.27 347.55 571.87 347.86 571.49 C 348.02 571.28 348.19 571.08 348.36 570.88 C 348.68 570.49 349.01 570.12 349.35 569.75 C 349.50 569.59 349.65 569.42 349.80 569.25 C 350.77 568.26 351.80 567.33 352.90 566.49 C 353.08 566.36 353.25 566.24 353.43 566.11 C 353.81 565.83 354.19 565.57 354.58 565.31 C 354.78 565.17 355.00 565.05 355.21 564.92 C 355.59 564.69 355.98 564.47 356.37 564.25 C 356.58 564.14 356.79 564.03 357.00 563.92 C 357.46 563.70 357.92 563.48 358.40 563.28 C 358.55 563.22 358.70 563.14 358.85 563.08 C 359.47 562.83 360.11 562.60 360.76 562.39 C 360.92 562.34 361.08 562.30 361.24 562.25 C 361.74 562.11 362.24 561.97 362.76 561.84 C 363.00 561.79 363.24 561.74 363.48 561.69 C 363.93 561.60 364.39 561.51 364.86 561.43 C 365.12 561.39 365.37 561.36 365.63 561.32 C 366.12 561.26 366.62 561.20 367.12 561.16 C 367.35 561.14 367.58 561.12 367.81 561.10 C 368.55 561.05 369.29 561.02 370.05 561.02 L 327.53 561.02 C 326.77 561.02 326.03 561.05 325.29 561.10 C 325.06 561.12 324.83 561.14 324.60 561.16 C 324.10 561.20 323.60 561.26 323.11 561.32 C 322.85 561.36 322.60 561.39 322.34 561.43 C 321.88 561.51 321.41 561.60 320.95 561.69 C 320.72 561.74 320.48 561.79 320.24 561.84 C 319.73 561.97 319.22 562.11 318.72 562.25 C 318.56 562.30 318.40 562.34 318.24 562.39 C 317.59 562.60 316.95 562.83 316.33 563.08 C 316.17 563.14 316.03 563.22 315.88 563.28 C 315.40 563.48 314.94 563.69 314.48 563.92 C 314.27 564.02 314.06 564.14 313.86 564.25 C 313.46 564.47 313.07 564.69 312.69 564.92 C 312.48 565.04 312.27 565.17 312.07 565.30 C 311.68 565.56 311.29 565.83 310.91 566.11 C 310.74 566.23 310.56 566.35 310.39 566.49 C 309.85 566.90 309.32 567.33 308.81 567.78 L 308.80 567.79 C 308.28 568.25 307.78 568.74 307.29 569.25 C 307.13 569.41 306.98 569.58 306.83 569.75 C 306.49 570.11 306.16 570.48 305.84 570.87 C 305.67 571.07 305.50 571.27 305.34 571.48 C 305.04 571.87 304.74 572.26 304.44 572.66 C 304.29 572.87 304.13 573.08 303.98 573.30 C 303.65 573.77 303.33 574.26 303.02 574.76 C 302.92 574.92 302.82 575.07 302.72 575.23 C 302.69 575.27 302.67 575.30 302.65 575.34 C 302.28 575.95 301.92 576.59 301.57 577.23 C 301.48 577.41 301.39 577.60 301.30 577.77 C 301.01 578.32 300.73 578.88 300.46 579.45 C 300.36 579.67 300.26 579.88 300.16 580.09 C 299.82 580.85 299.49 581.61 299.17 582.41 C 299.13 582.50 299.10 582.58 299.07 582.67 C 298.75 583.48 298.44 584.32 298.14 585.18 C 298.12 585.24 298.10 585.30 298.08 585.35 C 297.79 586.22 297.50 587.11 297.22 588.04 C 297.12 588.36 297.02 588.71 296.93 589.04 C 296.73 589.71 296.54 590.39 296.35 591.09 C 296.25 591.50 296.14 591.92 296.04 592.34 C 295.92 592.80 295.80 593.25 295.69 593.72 C 295.63 593.96 295.58 594.22 295.52 594.46 C 295.46 594.72 295.40 594.99 295.34 595.26 C 295.12 596.25 294.90 597.26 294.70 598.29 C 294.68 598.37 294.67 598.45 294.65 598.52 C 294.43 599.63 294.23 600.78 294.03 601.94 C 293.98 602.24 293.93 602.53 293.88 602.83 C 293.71 603.89 293.54 604.98 293.37 606.08 C 293.35 606.23 293.33 606.36 293.31 606.51 C 293.13 607.74 292.97 609.01 292.81 610.29 C 292.77 610.62 292.73 610.94 292.69 611.26 C 292.56 612.40 292.43 613.57 292.31 614.75 C 292.29 614.95 292.26 615.15 292.24 615.36 C 292.23 615.44 292.23 615.51 292.22 615.59 C 292.08 616.97 291.95 618.37 291.83 619.81 C 291.81 620.14 291.78 620.48 291.76 620.80 C 291.66 622.00 291.57 623.20 291.49 624.44 C 291.45 625.00 291.42 625.58 291.38 626.15 C 291.32 627.18 291.25 628.22 291.20 629.28 C 291.16 629.91 291.13 630.56 291.10 631.21 C 291.05 632.24 291.01 633.28 290.97 634.33 C 290.94 635.00 290.92 635.68 290.89 636.37 C 290.85 637.44 290.82 638.53 290.79 639.63 C 290.77 640.31 290.75 640.98 290.74 641.67 C 290.71 642.88 290.69 644.11 290.68 645.35 C 290.67 645.95 290.66 646.53 290.65 647.13 C 290.63 648.98 290.62 650.86 290.62 652.77 C 290.62 654.61 290.63 656.41 290.65 658.19 C 290.65 658.73 290.66 659.26 290.67 659.80 C 290.69 661.08 290.71 662.35 290.73 663.61 C 290.75 664.14 290.76 664.68 290.77 665.21 C 290.81 666.74 290.85 668.25 290.90 669.75 C 290.91 669.91 290.91 670.08 290.92 670.24 L 290.92 670.35 C 290.97 671.76 291.04 673.14 291.10 674.50 C 291.12 674.85 291.13 675.21 291.14 675.55 C 291.23 677.29 291.33 678.98 291.44 680.64 C 291.47 681.09 291.50 681.51 291.54 681.96 C 291.62 683.16 291.71 684.36 291.80 685.52 C 291.85 686.13 291.91 686.71 291.96 687.30 C 292.05 688.27 292.13 689.24 292.22 690.18 C 292.29 690.82 292.36 691.44 292.43 692.08 C 292.52 692.93 292.61 693.80 292.71 694.63 C 292.79 695.27 292.88 695.88 292.95 696.50 C 293.05 697.30 293.15 698.10 293.26 698.87 C 293.35 699.49 293.45 700.09 293.54 700.69 C 293.65 701.43 293.76 702.18 293.88 702.89 C 293.98 703.49 294.09 704.06 294.19 704.64 C 294.30 705.23 294.40 705.85 294.51 706.43 C 294.53 706.55 294.56 706.66 294.58 706.78 C 294.62 706.99 294.66 707.19 294.70 707.40 C 294.89 708.36 295.09 709.30 295.29 710.22 C 295.33 710.41 295.38 710.60 295.42 710.79 C 295.65 711.81 295.89 712.80 296.14 713.76 C 296.19 713.98 296.25 714.19 296.31 714.40 C 296.54 715.28 296.78 716.13 297.02 716.96 C 297.06 717.08 297.09 717.19 297.12 717.30 C 297.39 718.20 297.68 719.07 297.96 719.91 C 298.03 720.11 298.10 720.30 298.16 720.50 C 298.46 721.34 298.76 722.17 299.08 722.96 C 299.15 723.14 299.23 723.33 299.30 723.51 C 299.46 723.91 299.64 724.28 299.81 724.66 C 299.96 725.01 300.11 725.37 300.27 725.71 C 300.50 726.20 300.74 726.66 300.97 727.13 C 301.12 727.43 301.27 727.75 301.43 728.04 C 301.70 728.54 301.99 729.02 302.27 729.51 C 302.41 729.74 302.54 729.99 302.68 730.22 C 303.11 730.91 303.55 731.57 304.01 732.22 L 304.03 732.25 C 304.49 732.89 304.96 733.51 305.45 734.10 C 305.61 734.30 305.78 734.48 305.95 734.67 C 306.28 735.05 306.61 735.44 306.95 735.80 C 307.16 736.01 307.38 736.21 307.59 736.42 C 307.91 736.73 308.22 737.04 308.55 737.34 C 308.78 737.55 309.03 737.74 309.27 737.94 C 309.52 738.15 309.77 738.38 310.04 738.59 C 310.09 738.63 310.15 738.66 310.21 738.70 C 310.80 739.15 311.41 739.58 312.03 739.97 C 312.09 740.01 312.15 740.06 312.21 740.10 C 312.90 740.52 313.61 740.91 314.33 741.27 C 314.38 741.29 314.43 741.33 314.48 741.35 C 314.87 741.54 315.27 741.70 315.66 741.88 C 315.85 741.96 316.03 742.04 316.22 742.12 C 316.86 742.38 317.52 742.61 318.19 742.82 L 318.22 742.83 C 318.32 742.86 318.42 742.88 318.52 742.91 C 319.09 743.08 319.67 743.24 320.26 743.37 C 320.50 743.43 320.75 743.47 320.99 743.52 C 321.32 743.59 321.64 743.66 321.99 743.72 C 322.11 743.74 322.25 743.75 322.38 743.77 C 322.70 743.82 323.03 743.86 323.36 743.90 C 323.78 743.95 324.21 744.00 324.64 744.04 Z" fill="#9ebcea" fill-rule="nonzero" group-id="3" node-id="132" stroke="none" target-height="183.14099" target-width="79.441986" target-x="290.618" target-y="561.025"/><path d="M 462.29 678.29 C 462.41 676.67 462.49 675.01 462.58 673.36 C 462.64 672.26 462.72 671.19 462.77 670.08 C 462.85 668.22 462.90 666.30 462.96 664.39 C 462.99 663.45 463.03 662.53 463.05 661.58 C 463.11 658.70 463.15 655.76 463.15 652.78 C 463.15 650.22 463.12 647.69 463.07 645.20 C 463.05 644.42 463.03 643.65 463.00 642.88 C 462.98 641.80 462.95 640.70 462.92 639.62 C 462.89 638.88 462.85 638.16 462.82 637.42 C 462.79 636.86 462.77 636.30 462.74 635.74 C 462.63 633.42 462.50 631.14 462.34 628.88 C 462.32 628.58 462.29 628.30 462.27 628.01 C 462.12 626.00 461.95 624.01 461.76 622.06 C 461.71 621.53 461.66 621.00 461.61 620.48 C 461.39 618.32 461.15 616.18 460.88 614.09 C 460.84 613.78 460.80 613.48 460.76 613.18 C 460.51 611.32 460.25 609.50 459.97 607.70 C 459.89 607.21 459.82 606.72 459.74 606.24 C 459.44 604.36 459.12 602.50 458.77 600.68 C 458.74 600.55 458.72 600.42 458.69 600.29 C 458.64 600.01 458.58 599.73 458.52 599.45 C 458.18 597.70 457.81 595.97 457.43 594.28 C 457.34 593.89 457.26 593.50 457.17 593.12 C 456.74 591.27 456.28 589.45 455.81 587.66 C 455.71 587.30 455.61 586.94 455.51 586.58 C 455.06 584.97 454.60 583.38 454.12 581.82 C 454.04 581.56 453.97 581.29 453.89 581.04 C 453.35 579.32 452.78 577.64 452.20 576.00 C 452.06 575.62 451.93 575.25 451.80 574.88 C 451.21 573.26 450.60 571.66 449.96 570.10 C 449.94 570.05 449.92 570.00 449.90 569.95 C 449.90 569.93 449.89 569.92 449.88 569.90 C 449.46 568.88 449.01 567.89 448.57 566.90 C 448.24 566.17 447.94 565.42 447.60 564.70 C 447.10 563.64 446.57 562.62 446.05 561.58 C 445.74 560.96 445.44 560.32 445.12 559.71 C 444.52 558.57 443.89 557.49 443.26 556.39 C 442.99 555.92 442.74 555.43 442.46 554.97 C 441.54 553.43 440.59 551.93 439.61 550.48 C 438.74 549.18 437.83 547.93 436.91 546.71 C 436.70 546.43 436.49 546.15 436.28 545.87 C 435.36 544.68 434.43 543.52 433.47 542.40 C 433.34 542.26 433.21 542.12 433.09 541.98 C 432.21 540.96 431.31 539.98 430.39 539.03 C 430.17 538.80 429.95 538.57 429.73 538.35 C 428.72 537.33 427.69 536.33 426.63 535.38 C 426.43 535.19 426.22 535.02 426.01 534.83 C 425.06 533.99 424.09 533.17 423.10 532.39 C 422.90 532.23 422.71 532.06 422.51 531.91 C 422.41 531.83 422.31 531.74 422.20 531.66 C 421.15 530.84 420.07 530.07 418.98 529.32 C 418.71 529.13 418.43 528.96 418.15 528.77 C 417.21 528.14 416.24 527.53 415.26 526.94 C 414.87 526.70 414.46 526.46 414.06 526.23 C 413.12 525.69 412.16 525.17 411.19 524.66 C 410.84 524.49 410.50 524.30 410.15 524.12 C 410.00 524.05 409.87 523.98 409.73 523.91 C 408.63 523.37 407.50 522.86 406.36 522.38 C 406.10 522.26 405.84 522.16 405.59 522.05 C 404.25 521.50 402.90 520.97 401.52 520.49 C 401.38 520.44 401.24 520.39 401.11 520.35 C 400.38 520.10 399.66 519.85 398.92 519.62 C 398.28 519.42 397.63 519.24 396.98 519.05 C 396.81 519.00 396.63 518.95 396.45 518.90 C 395.03 518.50 393.57 518.15 392.10 517.82 C 391.83 517.76 391.56 517.70 391.28 517.64 C 390.03 517.38 388.77 517.13 387.48 516.91 C 387.28 516.88 387.07 516.85 386.86 516.82 C 386.55 516.77 386.24 516.73 385.93 516.68 C 384.52 516.47 383.10 516.29 381.66 516.13 C 381.46 516.11 381.25 516.08 381.05 516.06 C 379.47 515.91 377.86 515.79 376.24 515.71 C 375.87 515.68 375.50 515.67 375.13 515.65 C 374.68 515.63 374.23 515.60 373.78 515.59 C 372.56 515.55 371.32 515.53 370.07 515.53 L 327.53 515.53 C 329.25 515.53 330.93 515.58 332.60 515.65 C 332.97 515.67 333.34 515.68 333.71 515.71 C 335.33 515.79 336.94 515.90 338.51 516.06 C 338.72 516.08 338.92 516.11 339.13 516.13 C 340.57 516.29 341.99 516.47 343.39 516.68 C 343.71 516.73 344.02 516.77 344.33 516.82 C 345.82 517.06 347.30 517.34 348.75 517.64 C 349.02 517.70 349.29 517.76 349.56 517.82 C 351.04 518.15 352.49 518.50 353.92 518.90 C 354.10 518.95 354.27 519.00 354.44 519.05 C 355.84 519.45 357.22 519.89 358.57 520.35 C 358.71 520.40 358.85 520.44 358.98 520.49 C 360.36 520.97 361.72 521.50 363.05 522.05 C 363.31 522.16 363.57 522.26 363.82 522.38 C 365.11 522.92 366.37 523.51 367.61 524.12 C 367.96 524.30 368.30 524.49 368.65 524.66 C 369.62 525.17 370.58 525.69 371.53 526.23 C 371.93 526.47 372.33 526.70 372.73 526.93 C 373.71 527.52 374.68 528.14 375.63 528.77 C 375.90 528.96 376.18 529.13 376.45 529.31 C 377.65 530.14 378.83 531.00 379.99 531.91 C 380.19 532.06 380.38 532.23 380.57 532.38 C 381.56 533.17 382.53 533.99 383.48 534.83 C 383.69 535.02 383.90 535.19 384.10 535.38 C 385.16 536.33 386.19 537.32 387.20 538.35 C 387.42 538.57 387.64 538.80 387.86 539.03 C 388.78 539.98 389.68 540.97 390.56 541.98 C 390.68 542.12 390.81 542.26 390.94 542.40 C 391.90 543.52 392.83 544.68 393.75 545.87 C 393.96 546.15 394.17 546.43 394.38 546.71 C 395.30 547.94 396.21 549.18 397.08 550.48 C 398.06 551.93 399.01 553.43 399.93 554.97 C 400.23 555.47 400.51 556.01 400.80 556.52 C 401.40 557.57 402.02 558.62 402.59 559.71 C 402.96 560.40 403.29 561.13 403.65 561.83 C 404.13 562.78 404.62 563.72 405.07 564.70 C 405.44 565.48 405.77 566.30 406.12 567.09 C 406.54 568.04 406.97 568.98 407.37 569.95 C 407.39 570.01 407.42 570.07 407.44 570.12 C 408.07 571.67 408.68 573.26 409.26 574.88 C 409.40 575.25 409.54 575.62 409.67 576.00 C 410.26 577.65 410.82 579.33 411.36 581.04 C 411.44 581.30 411.52 581.57 411.60 581.83 C 412.08 583.38 412.54 584.97 412.98 586.58 C 413.08 586.94 413.18 587.30 413.28 587.67 C 413.76 589.46 414.21 591.27 414.64 593.12 C 414.73 593.51 414.81 593.90 414.90 594.28 C 415.29 595.98 415.65 597.70 416.00 599.45 C 416.05 599.73 416.11 600.01 416.17 600.29 C 416.54 602.24 416.89 604.23 417.21 606.24 C 417.29 606.73 417.37 607.22 417.44 607.70 C 417.72 609.50 417.99 611.33 418.23 613.17 C 418.27 613.48 418.32 613.78 418.36 614.10 C 418.62 616.19 418.87 618.32 419.08 620.48 C 419.14 621.01 419.18 621.54 419.24 622.07 C 419.42 624.02 419.59 626.00 419.74 628.00 C 419.77 628.30 419.79 628.59 419.81 628.89 C 419.97 631.14 420.11 633.42 420.21 635.74 C 420.24 636.30 420.27 636.87 420.29 637.43 C 420.37 639.23 420.43 641.05 420.48 642.88 C 420.50 643.65 420.52 644.42 420.54 645.20 C 420.59 647.70 420.62 650.22 420.62 652.79 C 420.62 655.77 420.59 658.71 420.52 661.59 C 420.50 662.54 420.46 663.46 420.44 664.40 C 420.38 666.31 420.32 668.22 420.24 670.09 C 420.19 671.20 420.12 672.27 420.06 673.36 C 419.97 675.02 419.88 676.68 419.77 678.30 C 419.69 679.44 419.59 680.55 419.50 681.67 C 419.37 683.19 419.25 684.72 419.11 686.20 C 419.00 687.34 418.87 688.45 418.75 689.57 C 418.59 691.00 418.43 692.43 418.26 693.82 C 418.12 694.94 417.96 696.03 417.81 697.13 C 417.62 698.48 417.43 699.83 417.22 701.14 C 417.05 702.23 416.86 703.29 416.68 704.36 C 416.46 705.64 416.23 706.92 415.99 708.17 C 415.79 709.22 415.58 710.25 415.36 711.27 C 415.11 712.49 414.85 713.71 414.57 714.90 C 414.31 716.06 414.03 717.21 413.75 718.34 C 413.56 719.08 413.38 719.82 413.19 720.54 C 412.84 721.84 412.48 723.12 412.11 724.38 C 411.94 724.98 411.77 725.58 411.59 726.17 C 411.03 728.00 410.46 729.79 409.85 731.53 C 409.83 731.58 409.81 731.62 409.79 731.67 C 409.19 733.37 408.57 735.03 407.93 736.64 C 407.74 737.12 407.54 737.58 407.34 738.05 C 406.87 739.20 406.38 740.34 405.88 741.45 C 405.63 742.00 405.38 742.54 405.12 743.08 C 404.64 744.11 404.14 745.12 403.63 746.11 C 403.38 746.61 403.12 747.12 402.86 747.61 C 402.26 748.73 401.64 749.83 401.01 750.90 C 400.83 751.21 400.65 751.54 400.47 751.84 C 399.61 753.27 398.72 754.66 397.81 756.01 C 382.60 778.34 359.17 789.51 327.53 789.51 L 370.06 789.51 C 401.70 789.51 425.12 778.34 440.34 756.01 C 441.21 754.73 442.05 753.42 442.87 752.06 C 442.92 751.99 442.95 751.91 443.00 751.84 C 443.18 751.54 443.36 751.21 443.54 750.90 C 444.17 749.83 444.78 748.73 445.38 747.61 C 445.65 747.12 445.90 746.61 446.16 746.11 C 446.67 745.12 447.17 744.10 447.65 743.08 C 447.90 742.54 448.16 742.00 448.41 741.45 C 448.91 740.34 449.39 739.20 449.87 738.05 C 450.06 737.58 450.26 737.12 450.45 736.64 C 450.51 736.49 450.58 736.35 450.64 736.19 C 451.22 734.73 451.77 733.23 452.31 731.69 C 452.33 731.64 452.35 731.59 452.37 731.53 C 452.98 729.78 453.56 727.99 454.12 726.17 C 454.30 725.58 454.46 724.98 454.63 724.39 C 455.00 723.12 455.37 721.85 455.72 720.54 C 455.91 719.82 456.09 719.09 456.27 718.36 C 456.45 717.65 456.64 716.96 456.81 716.24 C 456.91 715.80 457.00 715.34 457.10 714.90 C 457.38 713.71 457.63 712.50 457.89 711.28 C 458.10 710.25 458.32 709.22 458.52 708.18 C 458.76 706.92 458.98 705.64 459.21 704.36 C 459.39 703.29 459.57 702.24 459.75 701.16 C 459.95 699.84 460.14 698.48 460.33 697.13 C 460.49 696.03 460.64 694.95 460.78 693.83 C 460.96 692.43 461.12 691.00 461.27 689.57 C 461.37 688.71 461.48 687.87 461.57 687.00 C 461.59 686.75 461.61 686.47 461.63 686.21 C 461.78 684.73 461.90 683.20 462.02 681.68 C 462.11 680.54 462.21 679.43 462.29 678.29 Z" fill="#9ebcea" fill-rule="nonzero" group-id="3" node-id="134" stroke="none" target-height="273.98096" target-width="135.61801" target-x="327.533" target-y="515.53"/><path d="M 566.62 590.79 C 566.30 591.42 565.98 592.05 565.66 592.68 C 564.79 594.38 563.90 596.06 562.98 597.74 C 562.67 598.31 562.37 598.87 562.06 599.43 C 560.84 601.61 559.58 603.77 558.28 605.92 C 558.15 606.14 558.00 606.36 557.87 606.59 C 556.49 608.83 555.07 611.06 553.61 613.27 L 504.88 687.00 L 547.40 687.00 L 596.13 613.27 C 597.60 611.05 599.02 608.82 600.39 606.58 C 600.53 606.36 600.67 606.14 600.80 605.92 C 600.89 605.78 600.98 605.64 601.06 605.50 C 602.28 603.49 603.44 601.46 604.58 599.43 C 604.89 598.87 605.19 598.30 605.50 597.74 C 606.42 596.06 607.31 594.37 608.18 592.68 C 608.50 592.05 608.83 591.42 609.14 590.79 C 610.24 588.59 611.30 586.37 612.31 584.14 L 569.79 584.14 C 568.78 586.38 567.72 588.59 566.62 590.79 Z" fill="#9ebcea" fill-rule="nonzero" group-id="3" node-id="136" stroke="none" target-height="102.856995" target-width="107.43201" target-x="504.877" target-y="584.143"/><path d="M 698.32 687.00 L 666.31 687.00 L 666.31 519.70 L 623.79 519.70 L 623.79 687.00 L 655.79 687.00 L 655.79 730.71 L 623.79 730.71 L 623.79 785.87 L 666.31 785.87 L 666.31 730.71 L 698.32 730.71 L 698.32 687.00 Z" fill="#9ebcea" fill-rule="nonzero" group-id="3" node-id="138" stroke="none" target-height="266.162" target-width="74.53003" target-x="623.787" target-y="519.703"/><path d="M 168.38 687.00 L 200.37 687.00 L 200.37 730.70 L 168.38 730.70 L 168.38 785.86 L 113.46 785.86 L 113.46 730.71 L 0.00 730.71 L 0.00 691.56 L 116.55 519.70 L 168.38 519.70 Z M 114.36 609.09 C 114.97 594.77 115.46 586.46 115.82 584.15 L 114.36 584.15 C 109.78 594.28 104.37 604.03 98.18 613.27 L 49.45 687.00 L 113.46 687.00 L 113.46 641.86 C 113.46 634.34 113.76 623.42 114.36 609.09" fill="#dee8f5" fill-rule="nonzero" group-id="3" node-id="140" stroke="none" target-height="266.15796" target-width="200.366" target-x="0" target-y="519.7"/><path d="M 397.07 550.47 C 412.78 573.77 420.63 607.87 420.62 652.78 C 420.62 699.26 413.02 733.67 397.81 756.00 C 382.60 778.33 359.18 789.50 327.54 789.50 C 296.87 789.50 273.74 777.97 258.16 754.90 C 242.58 731.84 234.79 697.79 234.80 652.78 C 234.80 605.82 242.37 571.20 257.52 548.92 C 272.68 526.66 296.01 515.52 327.53 515.52 C 358.19 515.52 381.37 527.17 397.07 550.47 Z M 355.89 722.69 C 361.72 708.37 364.63 685.07 364.62 652.78 C 364.62 620.13 361.68 596.68 355.81 582.41 C 349.93 568.15 340.51 561.02 327.54 561.03 C 314.31 561.03 304.86 568.16 299.17 582.41 C 293.46 596.68 290.61 620.14 290.61 652.78 C 290.61 685.43 293.43 708.83 299.07 722.96 C 304.71 737.09 314.20 744.16 327.54 744.16 C 340.62 744.16 350.07 737.00 355.89 722.68" fill="#dee8f5" fill-rule="nonzero" group-id="3" node-id="142" stroke="none" target-height="273.985" target-width="185.83565" target-x="234.792" target-y="515.517"/><path d="M 623.79 687.00 L 655.79 687.00 L 655.79 730.70 L 623.79 730.70 L 623.79 785.86 L 568.87 785.86 L 568.87 730.71 L 455.41 730.71 L 455.41 691.56 L 571.97 519.70 L 623.79 519.70 Z M 569.79 609.08 C 570.39 594.77 570.87 586.45 571.24 584.14 L 569.79 584.14 C 565.19 594.28 559.78 604.02 553.61 613.27 L 504.88 687.00 L 568.88 687.00 L 568.88 641.86 C 568.88 634.34 569.18 623.42 569.79 609.09" fill="#dee8f5" fill-rule="nonzero" group-id="3" node-id="144" stroke="none" target-height="266.15796" target-width="200.374" target-x="455.413" target-y="519.7"/></g></svg>